<svg xmlns="http://www.w3.org/2000/svg" xmlns:xlink="http://www.w3.org/1999/xlink" width="1024" zoomAndPan="magnify" viewBox="0 0 768 767.999994" height="1024" preserveAspectRatio="xMidYMid meet" version="1.0"><defs><g/><clipPath id="50b0206789"><path d="M -51.9375 -52.761719 L 788.671875 -52.761719 C 798.21875 -52.761719 807.375 -48.96875 814.128906 -42.21875 C 820.878906 -35.46875 824.671875 -26.3125 824.671875 -16.761719 L 824.671875 798.441406 C 824.671875 818.324219 808.554688 834.441406 788.671875 834.441406 L -51.9375 834.441406 C -61.488281 834.441406 -70.644531 830.648438 -77.394531 823.898438 C -84.144531 817.148438 -87.9375 807.992188 -87.9375 798.441406 L -87.9375 -16.761719 C -87.9375 -36.644531 -71.820312 -52.761719 -51.9375 -52.761719 Z M -51.9375 -52.761719 " clip-rule="nonzero"/></clipPath></defs><g clip-path="url(#50b0206789)"><rect x="-76.8" width="921.6" fill="#281006" y="-76.799999" height="921.599993" fill-opacity="1"/></g><g fill="#a88873" fill-opacity="1"><g transform="translate(67.771216, 508.144716)"><g><path d="M 171.4375 -296.3125 C 221.394531 -296.3125 260.90625 -283.046875 289.96875 -256.515625 C 319.03125 -229.992188 333.5625 -193.875 333.5625 -148.15625 C 333.5625 -102.4375 319.03125 -66.3125 289.96875 -39.78125 C 260.90625 -13.257812 221.394531 0 171.4375 0 L 17.78125 0 L 17.78125 -4.234375 L 23.28125 -4.234375 C 30.613281 -4.234375 36.890625 -6.84375 42.109375 -12.0625 C 47.335938 -17.28125 50.09375 -23.5625 50.375 -30.90625 L 50.375 -267.953125 C 50.375 -274.722656 47.617188 -280.4375 42.109375 -285.09375 C 36.609375 -289.75 30.332031 -292.078125 23.28125 -292.078125 L 17.78125 -292.078125 L 17.78125 -296.3125 Z M 165.9375 -18.203125 C 186.257812 -18.203125 203.828125 -23.421875 218.640625 -33.859375 C 233.453125 -44.304688 244.804688 -59.335938 252.703125 -78.953125 C 260.609375 -98.566406 264.5625 -119.941406 264.5625 -143.078125 C 264.5625 -166.222656 262.234375 -185.90625 257.578125 -202.125 C 252.921875 -218.351562 246.363281 -232.113281 237.90625 -243.40625 C 220.40625 -266.832031 196.414062 -278.546875 165.9375 -278.546875 L 113.875 -278.546875 L 113.875 -18.203125 Z M 165.9375 -18.203125 "/></g></g></g><g fill="#a88873" fill-opacity="1"><g transform="translate(418.274787, 508.144716)"><g><path d="M 173.140625 -278.96875 L 173.140625 -30.484375 C 173.421875 -23.140625 176.171875 -16.925781 181.390625 -11.84375 C 186.609375 -6.769531 192.890625 -4.234375 200.234375 -4.234375 L 205.3125 -4.234375 L 205.734375 0 L 77.046875 0 L 77.046875 -4.234375 L 82.546875 -4.234375 C 89.597656 -4.234375 95.734375 -6.769531 100.953125 -11.84375 C 106.179688 -16.925781 109.078125 -23 109.640625 -30.0625 L 109.640625 -278.96875 L 52.484375 -278.96875 C 39.503906 -278.6875 29.203125 -274.59375 21.578125 -266.6875 C 13.960938 -258.78125 10.15625 -248.476562 10.15625 -235.78125 L 10.15625 -230.703125 L 5.921875 -230.703125 L 5.921875 -304.359375 C 17.492188 -299.566406 34.144531 -297.023438 55.875 -296.734375 L 226.46875 -296.734375 C 235.21875 -296.734375 244.742188 -297.582031 255.046875 -299.28125 C 265.347656 -300.976562 272.472656 -302.671875 276.421875 -304.359375 L 276.421875 -230.703125 L 272.1875 -230.703125 L 272.1875 -235.78125 C 272.1875 -253.28125 265.554688 -265.695312 252.296875 -273.03125 C 246.085938 -276.707031 238.609375 -278.6875 229.859375 -278.96875 Z M 173.140625 -278.96875 "/></g></g></g></svg>